{"title":"Sexy young 18 year old fucking","uid":6647139,"size":168177082,"categoryP":"porn","categoryS":"movie_clips","magnet":"?xt=urn:btih:e98f941f51a5dc099ff74b1e3ad91dac7ba10bef&amp;dn=Sexy+young+18+year+old+fucking&amp;tr=udp%3A%2F%2Ftracker.openbittorrent.com%3A80&amp;tr=udp%3A%2F%2Fopen.demonii.com%3A1337&amp;tr=udp%3A%2F%2Ftracker.coppersurfer.tk%3A6969&amp;tr=udp%3A%2F%2Fexodus.desync.com%3A6969","seeders":0,"leechers":0,"uploader":"stu181","files":1,"time":1314989351,"description":"Brought to you by the Pro Torrent Team   &lt;a href=&quot; http://www.protorrent.co.uk&quot; rel=&quot;nofollow&quot; target=&quot;_NEW&quot;&gt; http://www.protorrent.co.uk&lt;/a&gt;\n\nFormat : AVI\nFormat/Info : Audio Video Interleave\nFile size : 160 MiB\nDuration : 27mn 39s\nOverall bit rate : 811 Kbps\n\nVideo\nID : 0\nFormat : MPEG-4 Visual\nFormat profile : Advanced Simple@L5\nFormat settings, BVOP : No\nFormat settings, QPel : No\nFormat settings, GMC : No warppoints\nFormat settings, Matrix : Default (H.263)\nCodec ID : XVID\nCodec ID/Hint : XviD\nDuration : 27mn 39s\nBit rate : 705 Kbps\nWidth : 640 pixels\nHeight : 480 pixels\nDisplay aspect ratio : 4:3\nFrame rate : 25.000 fps\nColor space : YUV\nChroma subsampling : 4:2:0\nBit depth : 8 bits\nScan type : Progressive\nCompression mode : Lossy\nBits/(Pixel*Frame) : 0.092\nStream size : 140 MiB (87%)\nWriting library : XviD 1.2.1 (UTC 2008-12-04)\n\nAudio\nID : 1\nFormat : MPEG Audio\nFormat version : Version 1\nFormat profile : Layer 3\nCodec ID : 55\nCodec ID/Hint : MP3\nDuration : 27mn 39s\nBit rate mode : Constant\nBit rate : 96.0 Kbps\nChannel(s) : 2 channels\nSampling rate : 44.1 KHz\nCompression mode : Lossy\nStream size : 19.0 MiB (12%)\nAlignment : Split accross interleaves\nInterleave, duration : 46 ms (1.14 video frame)\nWriting library : LAMELAME_MAJOR_VERSI","torrent":{"xt":"urn:btih:e98f941f51a5dc099ff74b1e3ad91dac7ba10bef","amp;dn":"Sexy+young+18+year+old+fucking","amp;tr":["udp%3A%2F%2Ftracker.openbittorrent.com%3A80","udp%3A%2F%2Fopen.demonii.com%3A1337","udp%3A%2F%2Ftracker.coppersurfer.tk%3A6969","udp%3A%2F%2Fexodus.desync.com%3A6969"],"infoHash":"e98f941f51a5dc099ff74b1e3ad91dac7ba10bef","infoHashBuffer":{"type":"Buffer","data":[233,143,148,31,81,165,220,9,159,247,75,30,58,217,29,172,123,161,11,239]},"announce":[],"urlList":[]}}